# xmcd CD database file
#
# Track frame offsets:
#	150
#	13978
#	29934
#	42555
#	57088
#	70026
#	85462
#	101324
#	121701
#	134857
#	151802
#	168937
#	182131
#	197074
#	212976
#	226858
#	240779
#	255117
#	270493
#	287357
#
# Disc length: 4020 seconds
#
# Revision: 3
# Processed by: cddbd v1.5.2PL0 Copyright (c) Steve Scherf et al.
# Submitted via: CDex 1.51
#
DISCID=100fb214
DTITLE=Aaron Tippin - Ultimate Aaron Tippin
DYEAR=2004
DGENRE=Country
TTITLE0=You've Got To Stand For Something
TTITLE1=I Wonder How Far It Is Over You
TTITLE2=There Ain't Nothin' Wrong With The Radio
TTITLE3=I Wouldn't Have It Any Other Way
TTITLE4=I Was Born With A Broken Heart.
TTITLE5=My Blue Angel
TTITLE6=Working Man's Ph.D.
TTITLE7=The Call Of The Wild
TTITLE8=Honky-Tonk Superman
TTITLE9=Whole Lotta Love On The Line
TTITLE10=I Got It Honest
TTITLE11=She Feels Like A Brand New Man Tonight
TTITLE12=That's As Close As I'll Get To Loving You
TTITLE13=Without Your Love
TTITLE14=Country Boy's Tool Box
TTITLE15=Ten Pound Hammer
TTITLE16=How's The Radio Know
TTITLE17=I Can Help
TTITLE18=That's What Happens When I Hold You
TTITLE19=A Door
EXTD=YEAR: 2004
EXTT0=
EXTT1=
EXTT2=
EXTT3=
EXTT4=
EXTT5=
EXTT6=
EXTT7=
EXTT8=
EXTT9=
EXTT10=
EXTT11=
EXTT12=
EXTT13=
EXTT14=
EXTT15=
EXTT16=
EXTT17=
EXTT18=
EXTT19=
PLAYORDER=
